<?xml version="1.0" standalone="no"?>
<!DOCTYPE svg PUBLIC "-//W3C//DTD SVG 20010904//EN"
 "http://www.w3.org/TR/2001/REC-SVG-20010904/DTD/svg10.dtd">
<svg version="1.0" xmlns="http://www.w3.org/2000/svg"
 width="512.000000pt" height="512.000000pt" viewBox="0 0 512.000000 512.000000"
 preserveAspectRatio="xMidYMid meet">
<metadata>
Created by potrace 1.16, written by Peter Selinger 2001-2019
</metadata>
<g transform="translate(0.000000,512.000000) scale(0.100000,-0.100000)"
fill="#000000" stroke="none">
<path d="M2431 4387 c-6 -8 -18 -33 -26 -57 -20 -57 -31 -68 -72 -76 -33 -6
-39 -3 -97 55 -55 54 -66 61 -90 55 -30 -7 -43 -26 -54 -81 -6 -28 -13 -39
-29 -41 -13 -2 -25 -14 -32 -33 -14 -41 -41 -37 -101 16 -28 25 -57 45 -64 45
-23 0 -46 -35 -46 -70 0 -26 -9 -43 -36 -72 l-37 -37 -36 20 c-20 10 -43 24
-52 31 -9 6 -24 8 -33 5 -14 -6 -17 -19 -15 -77 3 -96 -6 -103 -77 -55 -54 35
-58 36 -71 19 -8 -10 -13 -45 -13 -84 0 -57 -3 -70 -23 -88 -29 -28 -33 -27
-101 4 -93 42 -133 9 -101 -85 19 -57 15 -81 -13 -81 -23 0 -42 -19 -42 -41 0
-9 -10 -29 -21 -43 -20 -26 -26 -27 -83 -24 l-62 3 0 -36 c1 -19 10 -52 20
-71 19 -34 19 -37 3 -62 -15 -22 -25 -26 -67 -26 -82 0 -106 -51 -50 -105 55
-52 32 -96 -59 -110 -43 -7 -81 -34 -81 -57 0 -6 9 -2 19 9 13 13 39 24 73 28
66 9 85 22 99 63 10 31 9 36 -21 67 -47 49 -39 69 32 73 47 2 59 7 72 27 21
32 23 64 7 103 -18 42 -9 62 28 62 47 0 79 20 98 61 11 23 29 43 46 50 40 17
49 48 31 104 -24 70 -16 79 48 55 75 -28 95 -26 139 19 36 36 39 43 39 95 0
31 2 56 5 56 2 0 19 -9 37 -20 38 -23 90 -26 107 -6 8 10 10 34 5 75 -8 70 1
76 58 41 66 -40 115 -14 139 75 14 48 44 54 95 20 28 -19 47 -25 69 -22 76 13
95 31 122 122 13 47 49 45 108 -7 44 -39 53 -43 98 -41 40 1 55 7 81 32 43 41
84 42 124 1 41 -41 76 -39 116 5 44 48 81 47 121 -1 51 -61 138 -65 184 -10
16 19 51 21 74 4 9 -7 23 -31 30 -53 10 -29 23 -45 49 -58 34 -17 37 -17 66 0
35 20 49 14 33 -15 -10 -18 -7 -22 22 -31 17 -6 52 -25 77 -41 53 -36 77 -37
125 -9 l36 21 -7 -39 c-6 -38 -4 -41 30 -63 26 -16 45 -20 64 -16 59 15 65 13
77 -26 7 -25 35 -63 85 -114 80 -80 90 -84 169 -59 l24 8 -7 -67 c-6 -59 -4
-72 14 -102 23 -36 37 -42 109 -46 58 -4 72 -25 43 -66 -48 -67 -13 -126 82
-139 l59 -8 -37 -43 c-61 -74 -45 -104 62 -117 28 -4 52 -9 52 -12 0 -3 -20
-28 -45 -54 -25 -26 -45 -55 -45 -63 0 -21 46 -54 90 -66 21 -6 49 -19 62 -30
l23 -20 -31 -27 c-17 -16 -48 -41 -68 -56 -58 -45 -44 -97 36 -132 50 -22 78
-43 78 -60 0 -6 -19 -22 -42 -35 -59 -32 -88 -60 -88 -84 0 -28 7 -36 58 -69
34 -22 42 -33 42 -57 0 -25 -6 -32 -37 -45 -68 -29 -75 -42 -98 -190 -4 -29
-3 -36 4 -25 7 9 11 10 11 3 0 -7 -7 -16 -15 -20 -16 -9 -77 -178 -68 -187 3
-3 15 0 26 5 15 9 25 7 46 -9 41 -31 34 -47 -24 -49 -27 -1 -58 -2 -67 -2 -10
-1 -34 -35 -66 -94 -65 -124 -104 -183 -202 -300 -223 -266 -555 -483 -880
-574 -276 -77 -569 -81 -847 -13 -216 53 -421 160 -638 334 -38 31 -74 54 -80
52 -5 -2 -28 -12 -49 -21 l-39 -17 6 59 6 58 -80 90 c-104 118 -216 285 -274
410 -25 55 -53 115 -62 133 -18 36 -57 62 -95 63 -13 0 -32 4 -42 8 -18 7 -16
12 22 53 60 65 56 129 -10 143 -51 11 -51 14 -13 57 28 31 35 46 33 71 -3 28
-11 36 -61 63 -31 16 -62 35 -67 40 -17 17 -2 39 43 64 65 36 77 49 77 90 0
27 -7 43 -30 65 -46 44 -40 67 28 112 53 36 57 41 60 82 3 41 0 48 -46 95 -28
28 -52 60 -55 71 -4 17 -5 17 -6 -3 -1 -16 15 -39 49 -72 41 -40 50 -54 50
-83 0 -43 -14 -55 -99 -87 -87 -34 -90 -52 -22 -110 76 -63 70 -93 -32 -152
-75 -44 -62 -86 42 -132 66 -30 55 -62 -51 -138 -36 -26 -14 -51 53 -61 84
-12 89 -34 24 -107 -25 -28 -45 -54 -45 -59 0 -17 28 -31 81 -41 110 -21 134
-90 61 -178 -42 -50 -52 -84 -29 -99 6 -4 36 -10 66 -13 69 -6 85 -27 53 -67
-62 -77 -52 -103 39 -103 33 0 59 -4 59 -8 0 -4 -14 -27 -31 -50 -25 -34 -28
-45 -19 -62 12 -22 37 -25 93 -9 33 9 42 8 58 -7 25 -23 24 -31 -8 -58 -38
-33 -23 -48 32 -31 41 12 47 11 67 -5 l22 -17 -18 -67 c-18 -64 -18 -68 -1
-86 23 -25 42 -25 101 1 38 16 54 18 71 10 26 -12 27 -21 11 -90 -9 -40 -9
-53 2 -66 17 -21 53 -19 100 5 81 41 107 21 89 -69 -9 -48 -9 -64 1 -76 25
-30 49 -28 93 7 61 50 65 51 92 34 21 -14 24 -24 27 -88 3 -67 5 -73 30 -87
26 -15 28 -14 82 37 30 29 58 52 61 52 6 0 46 -19 54 -26 2 -2 9 -37 15 -76
l11 -73 38 -6 c37 -6 38 -5 80 55 67 96 109 88 138 -27 9 -36 18 -51 35 -57
36 -14 48 -5 85 63 54 98 89 89 161 -42 30 -55 78 -35 99 42 16 64 35 87 69
87 22 0 37 -10 62 -41 18 -22 42 -52 54 -67 33 -40 50 -24 64 58 9 56 17 74
35 86 33 22 56 11 94 -41 40 -56 44 -58 75 -44 24 11 26 17 26 84 0 112 34
125 117 43 48 -48 54 -51 78 -40 24 11 25 16 25 87 0 68 2 76 25 91 23 15 27
15 69 -10 25 -14 48 -31 51 -36 10 -16 32 -11 59 13 l25 22 -16 66 c-9 37 -13
74 -10 83 9 23 45 20 96 -9 53 -31 63 -31 98 -1 l28 24 -22 67 c-16 49 -19 73
-12 86 12 23 22 24 82 2 35 -13 53 -14 64 -7 36 22 36 38 2 92 l-33 53 21 21
c20 20 23 20 69 4 63 -21 91 -20 104 4 9 17 5 29 -25 71 -51 68 -44 81 40 73
103 -11 119 17 60 100 -33 46 -34 50 -19 77 13 26 19 29 68 29 39 0 57 5 69
18 26 29 20 50 -28 104 -47 52 -54 78 -34 122 9 20 24 28 68 37 74 15 91 25
91 54 0 18 -13 33 -50 57 -96 62 -77 115 51 142 28 6 42 27 33 49 -2 6 -27 26
-53 44 -37 24 -51 40 -56 64 -8 36 8 55 74 91 24 13 31 24 31 47 0 26 -7 33
-56 57 -102 50 -108 74 -33 150 43 44 49 55 43 78 -7 28 -25 39 -109 68 -55
19 -57 43 -7 87 23 20 44 48 48 63 5 24 2 29 -21 38 -14 5 -48 10 -75 10 -27
0 -52 5 -56 11 -3 6 8 25 25 43 17 18 31 36 31 40 0 4 9 15 21 24 13 11 18 23
14 35 -6 14 -19 17 -70 17 -70 0 -113 12 -121 34 -3 8 8 35 26 61 23 33 29 52
24 68 -14 45 -23 49 -99 42 -64 -6 -73 -4 -90 15 -17 19 -18 27 -7 93 9 60 9
76 -4 95 -18 27 -24 27 -74 2 -59 -30 -82 -26 -128 24 -45 49 -51 64 -54 145
-4 83 -34 91 -109 30 -18 -14 -34 -19 -48 -14 -36 11 -41 36 -19 84 38 83 -1
103 -72 37 -54 -51 -68 -55 -99 -28 -16 13 -22 34 -27 87 -10 110 -34 122
-104 50 -66 -68 -102 -61 -126 24 -27 99 -34 111 -62 111 -18 0 -41 -16 -78
-56 -48 -52 -54 -56 -85 -49 -46 10 -62 26 -83 84 -33 94 -64 94 -117 1 -31
-56 -40 -65 -65 -65 -23 0 -33 9 -60 55 -50 84 -68 97 -93 67z m1339 -3133
c12 -36 20 -67 18 -70 -3 -2 -29 6 -59 19 -30 13 -63 27 -73 31 -17 6 -14 12
30 50 27 24 52 42 56 40 3 -2 16 -34 28 -70z"/>
<path d="M2410 4200 c-128 -13 -199 -27 -333 -66 -206 -59 -478 -205 -544
-291 -14 -18 -56 -53 -94 -78 -133 -89 -290 -288 -383 -485 -150 -321 -199
-678 -136 -991 30 -145 151 -418 232 -522 118 -152 393 -441 410 -431 4 3 8
28 8 55 0 54 16 93 62 152 16 20 28 37 26 37 -1 0 -30 -11 -63 -25 -33 -13
-73 -25 -88 -25 -60 0 -147 59 -147 100 0 12 15 42 32 68 18 26 41 64 50 84
18 40 47 59 118 78 51 13 89 40 173 119 76 72 102 113 87 140 -25 47 -134 40
-355 -23 -88 -26 -164 -45 -170 -43 -5 2 87 36 205 76 132 44 197 70 170 67
-25 -3 -55 -8 -65 -11 -16 -6 -17 -5 -5 4 32 22 -4 23 -82 1 -298 -83 -278
-79 -278 -51 0 20 45 41 232 113 91 35 101 48 13 18 -32 -11 -60 -18 -62 -16
-2 2 10 9 28 15 18 6 30 13 28 16 -6 6 -154 -39 -216 -66 -70 -30 -78 -54 -44
-122 16 -32 17 -39 5 -44 -8 -3 -14 -10 -14 -17 0 -15 147 -238 167 -253 14
-11 10 -15 -28 -33 -24 -11 -66 -20 -92 -20 -59 0 -81 19 -147 135 -169 298
-212 652 -119 996 28 104 35 112 78 93 27 -11 32 -18 28 -37 -54 -224 -52
-209 -50 -479 1 -236 3 -263 23 -325 29 -89 110 -256 150 -311 44 -62 48 -46
4 19 -81 120 -149 292 -142 360 2 24 10 37 28 45 21 11 187 59 402 119 65 18
120 66 138 121 20 59 0 92 -115 198 -124 113 -187 156 -275 187 -93 32 -103
44 -51 60 76 23 143 -10 344 -169 103 -83 107 -87 108 -126 1 -23 4 -31 6 -19
7 37 29 33 76 -15 42 -44 45 -52 56 -125 24 -166 87 -301 223 -473 6 -8 -16
-29 -69 -67 -43 -30 -145 -109 -228 -175 -82 -67 -155 -122 -162 -122 -16 0
-82 79 -89 107 -4 13 -10 23 -15 23 -31 0 68 -136 106 -146 27 -7 62 16 283
178 162 120 202 139 257 132 l40 -6 -39 33 c-61 51 -153 174 -197 262 -63 123
-82 208 -83 367 -1 165 18 243 100 399 30 58 54 110 54 116 0 16 114 115 183
159 69 44 181 90 260 106 40 8 60 18 68 32 10 18 9 20 -7 14 -11 -4 -57 -19
-104 -32 -108 -32 -194 -70 -247 -111 -37 -28 -43 -30 -54 -16 -36 42 -112 29
-125 -22 -5 -21 -15 -11 -93 93 -115 154 -201 277 -201 289 0 12 63 73 75 72
6 0 55 -54 110 -121 55 -66 128 -150 161 -186 58 -61 64 -64 95 -58 42 8 48
16 25 30 -63 38 -165 124 -256 216 -87 87 -116 125 -167 217 -35 61 -63 118
-63 126 0 27 60 62 195 114 152 59 230 85 340 112 369 90 765 49 1088 -115
110 -55 147 -65 102 -28 -49 41 -243 131 -350 162 -189 56 -426 80 -605 62z
m-852 -472 c5 -7 14 -29 20 -49 9 -34 8 -36 -13 -32 -34 7 -102 -15 -132 -43
l-28 -25 37 24 c39 26 113 42 140 32 21 -8 334 -435 359 -488 26 -57 24 -66
-19 -138 -21 -35 -53 -98 -70 -139 -17 -41 -32 -66 -32 -54 0 23 -34 59 -67
68 -26 8 -78 -16 -87 -39 -12 -33 -5 -66 19 -90 33 -34 78 -33 112 1 16 16 24
20 19 9 -3 -9 -11 -59 -18 -111 l-11 -93 -59 52 c-114 100 -333 268 -386 293
-29 15 -74 29 -100 31 -44 4 -188 48 -205 63 -4 4 4 35 19 69 24 54 26 67 16
93 -9 25 -7 39 9 83 24 65 113 208 183 295 62 76 176 194 182 187 2 -2 -44
-69 -104 -149 -141 -189 -232 -343 -232 -395 0 -9 20 22 44 69 67 131 195 310
219 305 7 -1 11 5 9 14 -2 17 138 169 156 169 5 0 14 -6 20 -12z m477 -518 c0
-18 -6 -26 -23 -28 -27 -4 -40 22 -22 44 19 22 45 13 45 -16z m-286 -384 c9
-11 6 -17 -15 -31 -31 -20 -50 -8 -39 24 7 24 37 28 54 7z m-527 -85 c1 -31 1
-101 0 -156 -2 -55 4 -143 12 -195 8 -52 13 -96 12 -98 -2 -1 -18 -7 -35 -12
-28 -8 -33 -6 -41 15 -16 42 -32 229 -26 300 4 39 14 102 23 141 15 59 20 70
35 66 14 -3 18 -16 20 -61z m320 -104 c110 -97 122 -151 50 -220 -30 -28 -142
-69 -156 -57 -11 11 -21 264 -12 324 9 55 -4 60 118 -47z m-118 -508 c-27 -11
-44 -11 -44 0 0 11 40 20 54 12 5 -2 1 -8 -10 -12z m53 15 c-3 -3 -12 -4 -19
-1 -8 3 -5 6 6 6 11 1 17 -2 13 -5z m288 -99 c-15 -19 -33 -35 -39 -35 -7 0
-22 18 -34 39 l-23 40 32 -9 c23 -7 40 -6 58 3 36 18 38 4 6 -38z m-105 -66
c0 -9 -11 -24 -25 -33 l-25 -16 -30 60 c-16 33 -30 61 -30 64 0 3 10 6 23 8
25 4 86 -55 87 -83z m-101 4 c28 -58 30 -68 17 -81 -13 -13 -20 -7 -55 48 -52
81 -52 89 1 99 3 0 20 -29 37 -66z m-165 -58 c25 -42 46 -81 46 -88 0 -6 -9
-23 -19 -36 l-19 -25 -45 70 c-43 66 -77 128 -77 138 0 5 27 13 51 15 10 1 34
-28 63 -74z"/>
<path d="M1503 3534 c-57 -29 -199 -209 -248 -317 -38 -82 -30 -95 105 -162
109 -53 176 -95 234 -142 22 -18 31 -21 42 -12 25 20 16 48 -23 72 -21 13 -80
46 -130 72 -51 27 -91 50 -90 51 1 2 67 -22 145 -52 179 -69 227 -73 278 -23
57 55 86 103 79 132 -8 32 -177 257 -253 336 -62 66 -83 73 -139 45z m64 -170
c2 -6 -16 -35 -39 -65 -24 -30 -54 -76 -68 -102 -24 -44 -42 -58 -54 -38 -8
13 39 100 89 164 43 54 64 66 72 41z m136 -68 c16 -23 14 -26 -32 -88 -27 -35
-58 -83 -70 -106 -12 -23 -23 -42 -26 -42 -15 0 -55 25 -55 34 0 33 137 226
160 226 4 0 15 -11 23 -24z m51 -88 c-4 -13 2 -28 15 -42 l21 -23 -34 -58
c-19 -31 -37 -62 -39 -69 -4 -12 -112 18 -123 35 -7 12 12 42 84 132 44 56 56
66 68 56 8 -7 12 -20 8 -31z m41 -114 c-53 -92 -67 -109 -30 -34 26 53 63 110
70 110 2 0 -16 -34 -40 -76z"/>
<path d="M1646 3104 c-9 -8 -16 -19 -16 -24 0 -15 41 -39 56 -33 19 7 18 59
-2 67 -21 8 -20 8 -38 -10z"/>
<path d="M1492 2528 c-35 -35 15 -99 53 -68 30 25 12 80 -25 80 -9 0 -21 -5
-28 -12z"/>
<path d="M2396 4070 c-176 -20 -368 -73 -478 -132 -105 -56 -121 -129 -53
-242 69 -115 206 -250 249 -245 12 2 40 -7 63 -19 60 -31 145 -31 177 1 24 24
81 178 74 199 -3 7 -17 -21 -33 -62 -63 -166 -115 -178 -182 -45 -14 28 -30
53 -36 56 -22 15 65 44 204 69 l102 18 -6 -58 c-8 -68 -47 -163 -84 -202 -15
-15 -24 -30 -21 -33 12 -12 66 47 97 106 29 52 33 71 34 133 0 93 -32 317 -49
335 -36 39 -419 -64 -539 -145 l-36 -24 -11 26 c-19 42 6 73 92 116 163 81
319 117 531 125 l156 6 21 -31 c41 -56 50 -151 37 -384 -8 -133 4 -180 55
-229 41 -39 163 -102 219 -112 78 -16 163 34 241 141 55 75 94 150 105 202 4
19 32 68 61 109 30 40 54 82 54 92 0 28 -37 49 -68 38 -20 -8 -44 0 -141 45
-126 59 -234 95 -353 120 -92 19 -130 20 -146 4 -9 -9 -16 -7 -32 7 -16 15
-40 19 -123 21 -56 1 -138 -1 -181 -6z m462 -46 c167 -34 396 -127 473 -192
17 -14 29 -34 29 -48 0 -23 -44 -104 -56 -104 -3 0 -4 21 -2 48 l3 47 -105 52
c-99 49 -260 103 -308 103 -32 0 -54 -40 -50 -91 l3 -44 135 -45 c131 -44 245
-98 245 -116 0 -5 -10 -22 -22 -37 l-21 -28 -89 45 c-79 40 -183 76 -300 106
-41 10 -43 12 -43 50 0 22 -5 84 -11 139 -7 55 -9 107 -6 115 8 20 28 20 125
0z m-897 -369 c35 -44 86 -104 113 -132 27 -29 43 -53 35 -53 -32 0 -229 231
-229 269 0 17 -3 21 81 -84z m504 65 c0 -24 -4 -25 -70 -33 -38 -4 -107 -16
-153 -27 -46 -11 -85 -20 -88 -20 -2 0 -4 11 -4 26 0 19 8 28 33 39 55 23 169
44 227 42 51 -2 55 -4 55 -27z m298 -197 c4 -6 31 -19 60 -28 28 -10 55 -20
59 -24 4 -3 -6 -22 -22 -41 -25 -31 -30 -33 -52 -23 -42 19 -62 76 -64 183
l-2 95 7 -75 c4 -41 10 -80 14 -87z m-633 92 c0 -20 -49 -40 -63 -26 -8 8 21
27 61 40 1 1 2 -6 2 -14z m917 4 c76 -29 102 -92 63 -156 -34 -56 -93 -56
-155 -2 l-35 31 0 -24 c0 -14 16 -43 36 -66 52 -61 83 -58 164 14 34 30 65 52
69 49 9 -10 -97 -101 -145 -125 -22 -11 -50 -20 -63 -20 -30 0 -121 40 -121
53 0 6 11 29 25 53 15 25 26 63 29 93 6 85 62 127 133 100z"/>
<path d="M2987 3572 c-22 -25 -21 -75 1 -95 41 -37 105 -11 105 41 0 62 -68
96 -106 54z m77 -8 c40 -39 5 -104 -47 -88 -28 9 -37 22 -37 56 0 43 53 64 84
32z"/>
<path d="M2900 3395 c0 -20 44 -47 72 -43 21 3 20 5 -17 31 -45 31 -55 33 -55
12z"/>
<path d="M2606 3820 c18 -238 17 -274 -3 -298 -12 -15 -36 -27 -68 -33 -81
-15 -78 -29 6 -29 95 0 119 14 119 72 0 22 -7 63 -15 91 -8 29 -21 99 -29 157
-9 63 -13 79 -10 40z"/>
<path d="M3560 3829 c0 -6 49 -62 109 -125 193 -201 300 -359 357 -527 132
-389 148 -712 52 -1029 l-21 -68 -53 0 c-29 0 -56 -4 -59 -10 -7 -12 -123 -12
-184 -1 -25 5 -51 17 -58 27 -7 10 -12 19 -10 20 1 1 31 -4 67 -12 36 -7 93
-14 128 -14 132 0 151 36 171 315 14 204 -10 414 -66 585 -37 110 -36 109
-135 67 -45 -20 -108 -45 -138 -56 -89 -34 -89 -34 -61 -83 l24 -43 -131 -125
c-72 -69 -136 -138 -141 -153 -6 -16 -11 -67 -11 -115 0 -91 -29 -239 -55
-279 -8 -12 -23 -24 -34 -28 -11 -3 -28 -24 -39 -45 -26 -53 -15 -112 37 -200
22 -36 58 -105 81 -153 35 -74 48 -91 80 -107 l38 -20 47 53 c98 108 125 168
90 197 -20 16 -19 33 4 78 34 66 54 77 135 74 98 -3 109 -8 101 -40 -26 -102
-273 -442 -322 -442 -6 0 -25 14 -41 31 -26 28 -31 30 -50 18 -26 -16 -42 -4
-80 62 -28 51 -48 65 -36 27 20 -68 66 -117 141 -150 38 -17 46 -17 76 -5 34
15 107 93 195 210 42 57 51 65 57 48 3 -10 12 -22 20 -25 8 -3 15 -13 15 -22
0 -10 5 -14 15 -10 34 13 -88 -157 -184 -257 -90 -94 -131 -105 -205 -55 -46
31 -105 104 -111 137 -20 108 -44 174 -111 306 -42 83 -77 151 -78 152 -1 1
-46 -41 -101 -93 -55 -52 -96 -94 -91 -94 5 0 45 27 89 60 l80 61 20 -33 c29
-47 114 -229 122 -260 7 -28 -22 -68 -49 -68 -8 0 -35 33 -60 74 -62 99 -103
134 -56 47 10 -20 44 -88 73 -153 62 -132 97 -186 166 -257 72 -74 83 -62 14
13 -52 57 -121 163 -111 170 1 1 18 13 35 25 l33 22 62 -66 c66 -72 120 -105
167 -105 109 0 438 483 525 770 58 193 75 479 41 680 -30 175 -104 409 -173
546 -63 124 -207 304 -325 406 -67 58 -87 68 -87 47z m367 -897 c47 -151 58
-228 58 -417 0 -172 -5 -222 -23 -211 -4 2 -3 48 2 102 17 174 -22 422 -85
546 -17 33 -18 42 -7 49 23 15 32 4 55 -69z m-11 -160 c28 -108 41 -279 30
-383 -10 -88 -12 -91 -75 -82 l-53 8 -3 165 c-1 130 -6 181 -23 240 l-20 75
51 52 c60 62 58 64 93 -75z m-220 44 c3 -14 3 -30 -1 -35 -3 -6 1 -46 10 -88
21 -97 23 -284 5 -380 -7 -40 -15 -73 -18 -73 -2 0 -21 19 -41 42 -37 41 -37
42 -29 102 8 62 -6 229 -23 273 -9 23 -23 25 -79 7 -8 -3 -4 7 11 23 14 15 47
56 73 91 51 67 81 80 92 38z m-99 -228 c-3 -8 -6 -5 -6 6 -1 11 2 17 5 13 3
-3 4 -12 1 -19z m10 -185 c-2 -32 -3 -8 -3 52 0 61 1 87 3 58 2 -29 2 -78 0
-110z m-13 -97 c47 -52 86 -100 86 -108 0 -25 -43 -56 -91 -67 -37 -8 -59 -7
-105 5 -33 9 -69 19 -81 21 -13 3 -23 7 -23 8 0 2 14 45 30 95 35 107 35 104
14 124 -14 15 -11 16 34 16 l50 0 86 -94z m289 -21 c26 -4 37 -11 37 -23 0
-36 -14 -43 -70 -35 -29 5 -52 11 -52 16 1 4 2 18 2 32 0 21 4 25 23 21 12 -3
39 -8 60 -11z m77 -12 c-1 -10 -5 -37 -9 -60 -6 -32 -5 -46 5 -54 33 -27 -14
-36 -123 -23 -47 6 -53 9 -53 31 0 23 2 23 53 17 95 -13 91 -15 101 49 4 31
12 57 17 57 5 0 9 -8 9 -17z m-306 -224 c-42 -105 -209 -343 -224 -319 -5 7
12 38 42 77 45 60 98 152 98 170 0 4 -19 -21 -41 -57 -23 -36 -57 -85 -77
-109 l-35 -43 -13 23 c-7 13 -13 29 -14 34 0 6 29 54 64 108 35 54 69 111 76
127 8 19 22 32 39 36 14 3 37 9 51 14 42 13 54 -8 34 -61z m-244 24 c0 -12
-59 -111 -69 -118 -6 -3 -15 4 -21 16 -21 39 25 109 72 109 10 0 18 -3 18 -7z"/>
<path d="M3456 2328 c-23 -32 -20 -55 8 -73 46 -31 102 25 71 71 -20 31 -59
32 -79 2z m61 -14 c6 -16 -19 -44 -39 -44 -12 0 -21 28 -14 45 7 20 45 19 53
-1z"/>
<path d="M3568 3633 c6 -2 18 -2 25 0 6 3 1 5 -13 5 -14 0 -19 -2 -12 -5z"/>
<path d="M3610 3626 c0 -2 7 -7 16 -10 8 -3 12 -2 9 4 -6 10 -25 14 -25 6z"/>
<path d="M2286 3605 c-12 -12 -13 -22 -5 -45 12 -34 39 -46 69 -30 26 14 26
44 0 70 -24 24 -43 25 -64 5z"/>
<path d="M3650 3606 c0 -2 8 -10 18 -17 15 -13 16 -12 3 4 -13 16 -21 21 -21
13z"/>
<path d="M3715 3530 c10 -11 20 -20 23 -20 3 0 -3 9 -13 20 -10 11 -20 20 -23
20 -3 0 3 -9 13 -20z"/>
<path d="M3537 3508 c-39 -37 -210 -228 -251 -283 -35 -46 -38 -53 -34 -103 6
-64 29 -91 84 -99 33 -4 63 5 189 62 264 117 280 126 283 161 4 36 -67 149
-146 233 -54 58 -86 65 -125 29z m-16 -288 c22 -35 39 -70 39 -77 0 -29 -27
-8 -73 54 -38 52 -45 68 -36 79 18 22 28 14 70 -56z m-86 -60 c35 -48 43 -65
26 -58 -14 5 -91 106 -91 119 0 17 24 -6 65 -61z m-112 -102 c15 -12 17 -18 8
-18 -27 0 -61 42 -61 74 l1 31 15 -35 c8 -19 25 -43 37 -52z"/>
<path d="M3740 3496 c0 -2 8 -10 18 -17 15 -13 16 -12 3 4 -13 16 -21 21 -21
13z"/>
<path d="M3363 3369 l-121 -122 -27 22 c-34 26 -45 26 -79 0 -21 -16 -26 -28
-24 -53 2 -19 8 -30 16 -28 8 1 11 -2 7 -8 -8 -13 33 -29 58 -22 10 2 26 16
35 31 9 14 64 78 122 141 58 63 114 125 124 138 42 49 5 16 -111 -99z m-165
-137 c3 -20 0 -23 -20 -20 -15 2 -24 11 -26 26 -3 20 0 23 20 20 15 -2 24 -11
26 -26z"/>
<path d="M3222 3387 c-72 -72 -89 -97 -53 -78 16 9 137 151 129 151 -2 0 -36
-33 -76 -73z"/>
<path d="M3790 3430 c12 -16 24 -30 26 -30 3 0 -4 14 -16 30 -12 17 -24 30
-26 30 -3 0 4 -13 16 -30z"/>
<path d="M2522 3438 c-15 -15 -16 -63 -2 -89 16 -28 84 -27 104 3 21 30 20 54
-4 78 -22 22 -79 27 -98 8z m74 -29 c3 -6 0 -18 -9 -26 -18 -18 -37 -9 -37 18
0 21 34 27 46 8z"/>
<path d="M2576 3302 c-30 -13 -8 -20 94 -32 210 -24 408 -150 539 -343 93
-137 131 -335 96 -501 -32 -149 -90 -260 -194 -370 -135 -142 -287 -213 -476
-223 -205 -11 -366 38 -538 164 -62 46 -66 48 -27 13 157 -143 335 -207 550
-198 92 4 106 2 94 -10 -18 -18 -18 -36 0 -29 8 3 31 9 50 13 41 7 46 21 14
33 -20 7 -18 9 18 15 56 10 154 57 228 110 211 151 340 412 323 656 -8 114
-28 187 -83 299 -83 168 -252 314 -437 377 -76 26 -217 40 -251 26z"/>
<path d="M2412 3210 c-116 -31 -206 -83 -298 -175 -128 -127 -184 -262 -184
-446 0 -420 358 -734 759 -665 239 41 409 188 493 426 14 38 22 92 25 175 6
147 -9 222 -69 339 -58 113 -191 245 -300 299 -142 68 -283 84 -426 47z m329
-78 c76 -27 104 -43 177 -97 158 -119 256 -336 237 -525 -32 -315 -270 -540
-570 -540 -162 0 -291 55 -411 175 -126 126 -184 265 -184 445 0 269 161 476
430 552 84 24 239 19 321 -10z"/>
<path d="M2440 3074 c-149 -39 -289 -149 -348 -274 -54 -115 -55 -112 34 -135
l77 -20 -2 -96 c-2 -103 10 -149 57 -221 44 -67 54 -45 16 35 -42 90 -51 153
-33 252 10 58 16 74 27 70 8 -3 33 12 57 34 24 22 67 52 97 68 47 24 64 28
143 28 79 0 96 -4 143 -28 78 -41 129 -98 148 -166 31 -113 39 -135 52 -139
11 -3 13 8 10 52 l-3 57 50 23 c28 13 67 31 88 40 34 14 37 18 31 43 -15 63
-81 170 -144 234 -133 133 -328 189 -500 143z"/>
<path d="M2495 2581 c-96 -59 -116 -161 -48 -241 35 -42 73 -60 128 -60 60 0
104 19 139 61 25 30 28 39 24 91 -3 45 -11 66 -34 95 -56 70 -146 93 -209 54z"/>
<path d="M2703 2230 c-23 -14 -33 -27 -33 -45 0 -31 26 -96 43 -107 25 -16 67
-7 98 20 39 35 35 63 -15 116 -39 41 -49 43 -93 16z"/>
<path d="M4001 3184 c0 -11 3 -14 6 -6 3 7 2 16 -1 19 -3 4 -6 -2 -5 -13z"/>
<path d="M3346 2924 c-21 -21 -20 -57 2 -77 26 -24 79 -22 92 2 14 26 13 64
-2 79 -17 17 -74 15 -92 -4z m54 -35 c0 -20 -15 -26 -25 -9 -9 15 3 43 15 35
5 -3 10 -15 10 -26z"/>
<path d="M2089 1846 c-69 -28 -95 -46 -229 -157 -184 -152 -222 -205 -183
-257 41 -56 247 -172 392 -221 76 -26 84 -22 148 60 60 78 168 257 183 304 7
22 15 44 18 49 5 8 54 -43 88 -91 17 -24 17 -25 -42 -119 l-18 -29 30 28 c48
43 84 31 84 -29 0 -24 -9 -40 -35 -63 -20 -17 -38 -31 -42 -31 -3 0 -20 9 -38
20 -40 25 -51 21 -92 -33 -30 -39 -31 -43 -17 -65 23 -36 13 -63 -38 -102 -88
-66 -156 -102 -210 -110 l-53 -8 47 -1 c60 -1 127 24 204 76 l61 41 -1 -66 -1
-67 210 1 c176 1 227 5 315 23 136 29 287 79 389 131 77 38 81 42 80 73 0 31
-1 31 -12 9 -7 -15 -46 -40 -111 -72 -127 -61 -190 -82 -223 -74 -26 7 -231
173 -290 236 -24 25 -38 54 -52 110 -11 42 -27 90 -35 107 -9 16 -16 39 -16
50 0 32 -46 61 -99 61 -59 1 -76 15 -85 69 -12 76 -31 97 -124 136 -98 41
-127 43 -203 11z m-69 -162 c66 -47 160 -90 256 -115 l83 -22 -25 -41 c-13
-23 -43 -76 -67 -119 -40 -76 -43 -79 -73 -74 -72 12 -332 152 -372 200 -25
30 4 25 58 -10 70 -45 270 -143 292 -143 11 0 25 22 44 70 15 39 33 75 41 81
21 18 16 27 -24 40 -76 24 -159 67 -220 113 -35 26 -63 52 -63 57 0 12 8 8 70
-37z m855 -605 c19 -17 35 -37 35 -44 0 -27 -293 -60 -442 -50 -92 7 -98 9
-98 29 1 11 7 32 15 46 l13 25 174 2 c95 1 191 6 213 11 22 5 43 10 47 11 4 0
23 -13 43 -30z"/>
<path d="M2922 1830 c-4 -4 -29 -15 -55 -24 -103 -38 -144 -106 -134 -223 3
-38 16 -99 29 -138 22 -66 28 -74 118 -153 97 -85 136 -112 165 -112 31 0 170
61 188 81 9 12 17 30 17 42 0 11 -25 76 -55 145 -71 159 -95 231 -95 283 0 67
-62 111 -148 106 -12 -1 -26 -4 -30 -7z m138 -140 c-62 -48 -251 -130 -298
-130 -36 0 1 25 68 45 84 25 145 51 205 89 45 28 63 25 25 -4z m20 -129 c6
-17 9 -35 5 -41 -9 -14 -126 -72 -203 -100 -34 -13 -61 -25 -58 -27 7 -7 153
45 216 77 33 17 61 30 64 30 2 0 25 -49 50 -110 35 -82 44 -114 37 -127 -5
-10 -41 -30 -80 -46 -87 -33 -90 -32 -210 77 -110 99 -112 102 -98 154 11 40
14 42 76 62 35 12 89 34 120 50 31 16 59 29 62 30 4 0 12 -13 19 -29z"/>
<path d="M2531 1764 c-24 -30 -26 -46 -10 -75 35 -65 143 -25 125 46 -15 59
-79 75 -115 29z m72 -27 c5 -14 -15 -47 -28 -47 -5 0 -5 3 -2 7 4 3 -1 11 -10
18 -9 7 -13 17 -9 23 10 16 43 15 49 -1z"/>
<path d="M2240 1145 c-51 -61 -108 -95 -164 -95 -38 0 -173 47 -306 106 -95
43 -62 16 50 -40 210 -106 330 -114 403 -26 25 30 72 110 64 110 -1 0 -23 -25
-47 -55z"/>
<path d="M2600 928 c-69 -5 -168 -7 -220 -4 -67 3 -86 1 -65 -5 84 -26 391
-19 491 10 25 8 21 9 -26 9 -30 -1 -111 -5 -180 -10z"/>
</g>
</svg>